<?xml version="1.0" encoding="UTF-8"?>
<svg id="Layer_1" data-name="Layer 1" xmlns="http://www.w3.org/2000/svg" viewBox="0 0 186.49 64.34">
  <defs>
    <style>
      .cls-1 {
        fill: #75b62d;
      }

      .cls-1, .cls-2 {
        stroke-width: 0px;
      }

      .cls-2 {
        fill: #adadad;
      }
    </style>
  </defs>
  <path class="cls-2" d="M35.23,45.06c.07.39.21.68.39.87.2.18.42.33.66.43.26.1.52.17.8.23.27.06.53.15.78.25.23.11.44.27.59.48.16.2.25.5.27.91,0,.1-.05.15-.15.15h-9.69v-17.49c0-3.63-1.03-6.6-3.1-8.94-2.09-2.27-4.8-3.42-8.1-3.42s-5.96,1.13-8.1,3.38c-2.12,2.31-3.17,5.21-3.17,8.72s1.09,6.6,3.28,8.93c2.15,2.3,4.92,3.45,8.29,3.45,1.56,0,3.05-.26,4.46-.79.73-.27,1.44-.6,2.16-.99.71-.39,1.45-.87,2.2-1.43v6.77c-1.5.82-3.01,1.43-4.55,1.81-.79.2-1.6.33-2.45.43-.84.1-1.68.15-2.56.15-1.66,0-3.31-.26-4.97-.76-1.64-.52-3.12-1.24-4.46-2.15-2.52-1.76-4.46-3.93-5.8-6.53-1.34-2.63-2.02-5.56-2.02-8.74,0-5.24,1.66-9.58,4.97-13.01,3.32-3.41,7.54-5.11,12.65-5.11,3.38,0,6.47.84,9.25,2.52,1.4.84,2.64,1.87,3.74,3.1,1.09,1.23,1.98,2.52,2.68,3.89.33.68.64,1.38.9,2.11.27.73.47,1.48.62,2.25.28,1.63.43,4.01.43,7.13v11.41Z"/>
  <path class="cls-2" d="M54.86,14.02c1.83-.73,3.49-1.11,4.99-1.16,1.5-.05,2.84.11,4,.46,1.17.34,2.15.82,2.96,1.43.8.6,1.4,1.19,1.81,1.78.42.59.63,1.09.64,1.53.01.43-.2.65-.64.65-.59.03-1.16.04-1.67.04h-2.61c-1.08,0-2.14.05-3.17.15-1.03.09-2.02.26-2.94.48-.92.23-1.76.54-2.52.93-.75.41-1.39.9-1.89,1.5-.91,1.08-1.61,2.43-2.11,4.07-.5,1.63-.76,3.61-.76,5.94v10.6c.1.91.26,1.61.5,2.1.25.49.52.86.85,1.12.32.25.65.43.98.54.34.11.65.23.92.38.28.14.49.34.65.6.16.27.22.68.2,1.23h-14.56c-.05-.58.02-1,.2-1.27.19-.26.42-.47.7-.6.29-.15.61-.27.96-.38.34-.11.69-.31,1.01-.59.32-.29.6-.71.82-1.27.23-.55.38-1.34.45-2.37V13.29h5.8v5.19c1.11-2.09,2.58-3.58,4.43-4.46Z"/>
  <path class="cls-2" d="M183,45.06c.07.39.21.68.39.87.2.18.42.33.66.43.26.1.52.17.8.23.27.06.53.15.77.25.23.11.44.27.59.48.16.2.25.5.27.91,0,.1-.05.15-.15.15h-9.69v-17.49c0-3.63-1.03-6.6-3.1-8.94-2.09-2.27-4.8-3.42-8.1-3.42s-5.96,1.13-8.1,3.38c-2.12,2.31-3.17,5.21-3.17,8.72s1.09,6.6,3.28,8.93c2.15,2.3,4.92,3.45,8.29,3.45,1.56,0,3.05-.26,4.46-.79.73-.27,1.44-.6,2.16-.99.71-.39,1.45-.87,2.2-1.43v6.77c-1.5.82-3.01,1.43-4.55,1.81-.79.2-1.6.33-2.45.43-.84.1-1.68.15-2.56.15-1.66,0-3.31-.26-4.97-.76-1.64-.52-3.12-1.24-4.46-2.15-2.52-1.76-4.46-3.93-5.8-6.53-1.34-2.63-2.02-5.56-2.02-8.74,0-5.24,1.66-9.58,4.97-13.01,3.32-3.41,7.54-5.11,12.65-5.11,3.38,0,6.47.84,9.25,2.52,1.4.84,2.64,1.87,3.74,3.1,1.09,1.23,1.98,2.52,2.68,3.89.33.68.64,1.38.9,2.11.27.73.47,1.48.61,2.25.28,1.63.43,4.01.43,7.13v11.41Z"/>
  <path class="cls-1" d="M77.69,10.6c-1.01-.17-1.92-.46-2.74-.86-.69-.34-1.38-.81-2.05-1.43-.66-.61-1.09-1.43-1.29-2.43V0c.98-.01,1.88.11,2.71.41.69.26,1.36.71,2.03,1.37.66.65,1.11,1.63,1.35,2.95v5.88h0ZM77.91,29.83v18.87c-.05,1.76-.21,3.43-.47,5.02-.12.66-.27,1.36-.46,2.07-.17.71-.39,1.39-.66,2.04-.26.64-.58,1.25-.93,1.83-.37.58-.78,1.06-1.23,1.44-1.29,1.06-2.79,1.87-4.49,2.42-1.68.55-3.77.82-6.25.82h-9.22c.17-1.41.48-2.52.96-3.32.47-.79,1.07-1.38,1.79-1.78.74-.39,1.59-.65,2.58-.77.98-.11,2.07-.21,3.23-.28.98-.07,1.92-.2,2.82-.36.74-.15,1.49-.33,2.23-.57.75-.22,1.3-.52,1.66-.87.75-.73,1.29-1.6,1.62-2.62.33-1.02.5-2.25.5-3.69V13.59c1.25.03,2.36.44,3.32,1.27.41.36.8.81,1.18,1.36.39.55.73,1.24,1.02,2.09.28.84.5,1.83.64,2.99.15,1.16.2,2.48.15,4v4.54Z"/>
  <path class="cls-2" d="M112.93,36.96c1.09-1.01,2.08-1.73,2.93-2.18.86-.44,1.57-.74,2.15-.89.66-.17,1.25-.21,1.76-.11-.21,1.25-.49,2.4-.82,3.44-.33,1.04-.74,2.02-1.21,2.91-.47.91-1.01,1.75-1.62,2.54-.61.79-1.32,1.55-2.11,2.26-3.18,2.91-7.06,4.36-11.59,4.36-1.56,0-3.1-.22-4.61-.65-1.54-.41-2.96-1.02-4.28-1.83-2.77-1.68-4.94-3.92-6.53-6.74-1.56-2.78-2.34-5.82-2.34-9.11,0-1.22.11-2.41.34-3.56.22-1.16.55-2.28.98-3.38.9-2.19,2.19-4.17,3.9-5.95,1.7-1.72,3.63-3.04,5.75-3.96,2.24-.91,4.52-1.36,6.85-1.36,3.55,0,6.74.94,9.54,2.8,2.82,1.89,5.08,4.62,6.81,8.18l-23.02,12.75c-.25-1.06-.23-2.11.04-3.17.22-.91.69-1.88,1.43-2.91.73-1.03,1.92-1.99,3.58-2.88.12-.07.34-.21.66-.41.33-.19.73-.42,1.19-.68.47-.27.98-.55,1.54-.87.54-.31,1.09-.61,1.65-.93,1.33-.74,2.77-1.56,4.33-2.45-1.03-1.16-2.21-2.03-3.53-2.63-1.28-.6-2.71-.9-4.29-.9-3.15,0-5.8,1.18-7.95,3.53-2.16,2.35-3.25,5.26-3.25,8.72s1.08,6.36,3.25,8.68c2.15,2.37,4.81,3.56,7.95,3.56s5.5-.98,7.5-2.95c.66-.58,1.2-1.14,1.6-1.67.39-.54.87-1.07,1.43-1.57Z"/>
  <path class="cls-2" d="M138.61,13.2c.98.11,1.78.41,2.41.93.77.63,1.36,1.3,1.77,2.05.48.86.81,1.84,1.01,2.95h-5.19v-5.93h0ZM138.61,48.29v-6.09c.61.09,1.27.15,1.98.17.38-.1.64-.28.77-.54.14-.27.23-.54.31-.81.07-.28.18-.53.34-.76.15-.22.47-.34.95-.37.07.02.11.05.11.1v8.4h-2.84c-.25,0-.49-.01-.76-.04h-.07c-.27-.01-.53-.03-.79-.05ZM134.19,13.12h.75c.46.03.9.04,1.34.04h1.68c.23,0,.44.02.65.04v5.93h-4.46l.04-6.01h0ZM138.61,42.2v6.09c-3.79-.31-6.7-1.36-8.75-3.16-2.47-2.16-3.71-5.42-3.71-9.8V9.33c.02-1.34.36-2.42,1.01-3.22.65-.81,1.36-1.43,2.16-1.86.91-.5,1.95-.85,3.13-1.04v31.02c0,2.83.69,4.89,2.05,6.2.96.91,2.33,1.5,4.11,1.77Z"/>
</svg>